<svg xmlns="http://www.w3.org/2000/svg" preserveAspectRatio="none" style="display:block" viewBox="393.09 496.53 1328.48 339.52"><defs><linearGradient id="j" x1="1540.74" x2="1553.4" y1="720.933" y2="617.804" gradientUnits="userSpaceOnUse"><stop class="stop0" offset="0" stop-color="#289242"/><stop class="stop1" offset="1" stop-color="#34c456"/></linearGradient><linearGradient id="i" x1="1411.73" x2="1460.05" y1="726.149" y2="574.417" gradientUnits="userSpaceOnUse"><stop class="stop0" offset="0" stop-color="#299a45"/><stop class="stop1" offset="1" stop-color="#40ea68"/></linearGradient><linearGradient id="h" x1="1638.59" x2="1672.31" y1="759.052" y2="616.472" gradientUnits="userSpaceOnUse"><stop class="stop0" offset="0" stop-color="#299b44"/><stop class="stop1" offset="1" stop-color="#3de364"/></linearGradient><linearGradient id="g" x1="399.397" x2="546.025" y1="615.663" y2="515.071" gradientUnits="userSpaceOnUse"><stop class="stop0" offset="0" stop-color="#1f7837"/><stop class="stop1" offset="1" stop-color="#45f56d"/></linearGradient><linearGradient id="f" x1="513.122" x2="560.854" y1="724.734" y2="635.187" gradientUnits="userSpaceOnUse"><stop class="stop0" offset="0" stop-color="#22903e"/><stop class="stop1" offset="1" stop-color="#36ca59"/></linearGradient><linearGradient id="e" x1="635.199" x2="645.109" y1="722.742" y2="724.306" gradientUnits="userSpaceOnUse"><stop class="stop0" offset="0" stop-color="#176731"/><stop class="stop1" offset="1" stop-color="#217f3e"/></linearGradient><linearGradient id="d" x1="659.33" x2="691.766" y1="720.433" y2="741.957" gradientUnits="userSpaceOnUse"><stop class="stop0" offset="0" stop-color="#2eae4f"/><stop class="stop1" offset="1" stop-color="#42dd64"/></linearGradient><linearGradient id="c" x1="593.934" x2="698.329" y1="647.845" y2="495.431" gradientUnits="userSpaceOnUse"><stop class="stop0" offset="0" stop-color="#37cb59"/><stop class="stop1" offset="1" stop-color="#47ee6d"/></linearGradient><linearGradient id="b" x1="548.471" x2="562.953" y1="840.588" y2="705.456" gradientUnits="userSpaceOnUse"><stop class="stop0" offset="0" stop-color="#21873c"/><stop class="stop1" offset="1" stop-color="#35c558"/></linearGradient><linearGradient id="a" x1="527.262" x2="609.268" y1="810.191" y2="504.953" gradientUnits="userSpaceOnUse"><stop class="stop0" offset="0" stop-color="#112721"/><stop class="stop1" offset="1" stop-color="#163f2b"/></linearGradient></defs><path fill="url(#a)" d="M601.084 498.384c5.749-2.464 97.971-2.328 104.649.084 2.186.789 3.461 1.957 4.372 4.071 4.55 10.559 3.366 98.05 1.724 113.609-10.122 11.626-18.927-1.764-27.681-9.154l-3.378.81-1.054 2.394c-2.478 13.606-11.993 22.493-21.393 32.122-17.297 17.716-34.022 36.449-51.603 53.835-9.618 11.006-36.381 32.706-36.336 45.83.021 6.331 10.511 12.866 12.914 16.354q.779.59 1.566 1.168c16.824 12.315 38.56 11.983 51.271-5.853-6.019-1.622-17.162-2.559-23.704-3.304 2.257-3.06 4.623-5.721 7.104-8.589 5.991-7.695 11.186-16.278 17.9-23.249 4.868-5.056 6.313-4.683 13.109-4.599 8.349-.003 50.429-.659 54.726.794l.462.242c2.563 1.271 4.948 2.216 5.607 5.596 2.492 12.778 1.313 43.552-1.325 55.313a76 76 0 0 1-8.567 21.673c-5.815 9.999-11.741 16.605-21.324 22.902-11.806 11.002-36.653 15.665-52.243 15.611-47.701-.165-95.376-.252-143.081-.004-10.859.056-19.169-.038-30.094-2.257-30.3-6.156-53.865-30.953-56.812-61.779-.727-9.185 30.887-38.456 37.918-45.565l50.342-50.613 137.313-137.365c-6.159-10.511-14.758-18.09-20.924-28.565-2.859-4.858-2.965-6.115-1.458-11.512"/><path fill="url(#b)" d="M680.123 820.433c-2.935.983-8.458 3.96-11.859 5.391-13.986 6.112-25.681 8.97-41.163 8.767-57.407-.757-116.026 2.917-173.157-2.461-8.935-.841-28.313-12.863-35.244-19.947-6.492-6.636-20.947-24.092-14.605-35.218 4.875-6.274 14.966-15.916 20.917-21.967l48.887-49.52c4.425 3.947 36.486 33.213 36.235 39.508-.443 11.077-43.296 33.24-30.119 46.603 7.907 8.019 23.021 9.407 32.909 9.42 27.93.038 55.624-.003 83.533-.013 12.233-.069 39.8 1.284 50.239-1.113a43.85 43.85 0 0 0 20.92-11.768c8.102-8.033 19.779-32.796 10.604-41.681 6.091-.542 22.889-17.947 26.806-23.069 2.454-3.208 1.567-5.136.706-8.416 2.563 1.271 4.948 2.216 5.607 5.596 2.492 12.778 1.313 43.552-1.325 55.313a76 76 0 0 1-8.567 21.673c-5.815 9.999-11.741 16.605-21.324 22.902"/><path fill="url(#c)" d="M601.084 498.384c5.749-2.464 97.971-2.328 104.649.084 2.186.789 3.461 1.957 4.372 4.071 4.55 10.559 3.366 98.05 1.724 113.609-10.122 11.626-18.927-1.764-27.681-9.154 1.478-2.256.521-9.947.342-13.016-3.014-3.224-6.009-6.985-10.154-8.263l-2.841.239c-21.758 19.399-50.502 50.201-70.435 69.902l-39.521-39.895c12.198-13.372 69.386-66.591 71.083-77.934 1.016-6.797-26.214-32.838-31.538-39.643"/><path fill="#206737" d="M684.49 593.978c4.777 5.143 18.855 21.708 24.162 23.419l3.177-1.249c-10.122 11.626-18.927-1.764-27.681-9.154 1.478-2.256.521-9.947.342-13.016"/><path fill="url(#d)" d="M650.544 713.913c8.349-.003 50.429-.659 54.726.794l.462.242c.861 3.28 1.748 5.208-.706 8.416-3.917 5.122-20.715 22.527-26.806 23.069q-7.854-.18-15.708-.279c-10.507 1.425-30.597 1.006-41.181-.396.944-1.163 1.682-1.977 2.962-2.767.449-1.861.93-2.863.203-4.609a127 127 0 0 1-3.007 3.784l-1.954-.406c5.991-7.695 11.186-16.278 17.9-23.249 4.868-5.056 6.313-4.683 13.109-4.599"/><path fill="url(#e)" d="M619.535 741.761c5.991-7.695 11.186-16.278 17.9-23.249 4.868-5.056 6.313-4.683 13.109-4.599-.08 1.438-5.562 16.025-6.302 17.58l.683-.717c-3.875 6.271-5.435 8.204-10.46 13.624 1.717 1.761 1.629 1.203 4.767 1.607 7.062-.225 16.382-.668 23.28.148-10.507 1.425-30.597 1.006-41.181-.396.944-1.163 1.682-1.977 2.962-2.767.449-1.861.93-2.863.203-4.609a127 127 0 0 1-3.007 3.784z"/><path fill="#2a9747" d="M650.544 713.913c8.349-.003 50.429-.659 54.726.794-11.91.944-37.863-.836-46.919 2.64-3.138 3.719-5.491 9.221-8.32 13.269-3.623 5.184-7.294 10.101-10.799 15.391-3.138-.404-3.05.154-4.767-1.607 5.025-5.42 6.585-7.353 10.46-13.624l-.683.717c.74-1.555 6.222-16.142 6.302-17.58"/><path fill="#40da63" d="M591.868 697.498a2758 2758 0 0 1 86.039-87.647l1.809.347c-2.478 13.606-11.993 22.493-21.393 32.122-17.297 17.716-34.022 36.449-51.603 53.835-6.828 3.134-7.751 4.489-14.852 1.343"/><path fill="#2a9747" d="M591.868 697.498c7.101 3.146 8.024 1.791 14.852-1.343-9.618 11.006-36.381 32.706-36.336 45.83.021 6.331 10.511 12.866 12.914 16.354-.082.596-.389 1.054-.673 1.642-1.904-1.847-2.872-2.72-4.984-4.318l-1.682.858c-2.013 6.427 1.501 6.913 3.961 11.33-2.12-.162-12.149-9.66-14.242-11.45-22.138-18.929 11.807-44.531 26.19-58.903"/><path fill="url(#f)" d="M549.367 628.682c6.561-.507 16.552 12.161 21.35 16.994 5.475 5.516 15.459 13.814 18.907 20.329-.475 4.498-56.126 59.229-63.829 67.549-6.171-1.779-34.276-32.358-42.079-39.451 14.091-15.98 31.212-30.832 45.899-46.392 5.971-6.325 13.165-13.387 19.752-19.029"/><path fill="url(#g)" d="M495.389 621.959c-26.194 1.015-53.507-.692-79.814.253-12.781.459-21.541-.171-21.898-15.751-.501-32.453-4.909-65.844 21.077-90.611 24.472-23.323 54.758-19.401 86-18.52 18.611-.258 45.35-1.055 63.339-.068 8.134 6.426 22.682 22.36 30.316 30.517 3.744 4.118 7.21 7.942 2.525 12.582-9.23 3.177-18.631 1.529-27.937 1.849-26.431.908-80.486-4.038-103.001 5.748a36.65 36.65 0 0 0-18.237 17.388c-4.219 8.532-4.764 16.583-4.857 25.887l54.345-.127c5.962-.008 23.944-.34 28.949.736 23.978 5.592-13.437 36.583-19.709 43.245-5.1-3.368-4.074-13.559-11.098-13.128"/><path fill="#123d28" d="M594.409 527.779c3.744 4.118 7.21 7.942 2.525 12.582-9.23 3.177-18.631 1.529-27.937 1.849-26.431.908-80.486-4.038-103.001 5.748a36.65 36.65 0 0 0-18.237 17.388c-4.219 8.532-4.764 16.583-4.857 25.887l54.345-.127c5.962-.008 23.944-.34 28.949.736-11.302.528-86.861 1.79-91.754-1.775-3.201-5.134-2.21-8.299-2.588-13.579-2.235-31.215 14.188-45.141 44.738-44.557 13.093.251 31.097.495 44.979-.042 12.901.769 61.675-.793 70.392 1.218 2.139 1.857 2.814 2.752 5.449 3.544.478-2.111-1.986-6.591-3.003-8.872"/><path fill="#40da63" d="M500.754 497.33c18.611-.258 45.35-1.055 63.339-.068 8.134 6.426 22.682 22.36 30.316 30.517 1.017 2.281 3.481 6.761 3.003 8.872-2.635-.792-3.31-1.687-5.449-3.544-8.717-2.011-57.491-.449-70.392-1.218 6.855-3.048 18.339-.104 24.517-1.834-11.871-4.763-21.654-17.41-27.289-28.591l-.568-1.143c4.352-.12 11.469-.11 15.501-.819-6.615.094-28.488 1.507-32.978-2.172"/><path fill="url(#h)" d="M1664.58 615.422c70.33-3.709 76.37 96.508 13.62 106.61-14.38 2.314-27.59-1.165-39.27-10.019l-.47 18.699.07 25.626c-9.56-.183-19.82.065-29.43.121l.2-139.937 27.86-.219c1.2 1.745.64 5.624.53 7.98l.85.871c10.96-5.457 13.8-7.673 26.04-9.732m9.1 81.21c15.89-7.704 22.41-24.504 14.12-40.432a27.36 27.36 0 0 0-16.89-13.79c-4.19-1.205-10.58-.717-14.94-.317-3.98 1.599-8.91 3.432-11.14 7.059-16.17 26.346-3.32 52.955 28.85 47.48"/><path fill="#fefefe" d="M826.169 578.542c19.475-1.608 37.885 2.566 54.216 13.412-2.413 6.307-8.077 17.402-11.135 23.874-12.294-7.571-58.425-22.76-61.315 4.416-.997 9.375 17.439 14.611 25.185 15.658 40.059 5.419 75.472 30.453 44.712 71.591-10.284 13.496-37.017 15.842-54.821 15.842-20.476-2.971-34.651-6.897-51.039-19.813 4.139-6.579 8.843-15.486 12.68-22.373 20.684 14.402 41.372 18.645 65.726 12.586 21.789-17.954-5.145-27.18-20.019-30.146-21.767-4.34-52.899-12.339-54.271-39.295a40.38 40.38 0 0 1 10.544-29.302c10.202-11.261 24.709-15.676 39.537-16.45"/><path fill="url(#i)" d="m1395.56 580.502 96.22.562.04 22.868c-10.94 12.354-23.3 28.888-33.96 41.947-13.07 16.012-27.46 32.73-40.07 48.909 24.39-.314 49.47.043 73.91.102.44 7.828.19 17.787.2 25.797l-8.65.048-103.06.145.23-24.237c20.11-23.81 39.09-48.868 59.17-72.744 4.26-5.058 8.33-10.359 12.26-15.68-20.16-1.447-50.38-.489-71.27-.446.34-8.525.13-18.368.14-26.996z"/><path fill="#fefefe" d="M1008.52 615.424c12.57-3.17 34.13 3.886 43.4 13.224 14.98 15.087 12.46 36.771 12.3 56.141q-.255 17.672 0 35.345c-9.62.274-18.01.185-27.63-.091v-11.739c-18.17 18.684-44.321 20.99-64.099 3.238-11.908-13.217-10.865-36.053 4.957-45.873 16.991-10.545 37.372-9.631 56.332-5.976-7.68-29.759-32.16-19.726-52.372-10.457a1096 1096 0 0 1-11.413-19.621c13.034-11.022 21.821-13.254 38.525-14.191m6.6 84.171c20.33-5.886 27.85-26.85-1.4-23.217-28.595 5.71-19.449 25.377 1.4 23.217"/><path fill="url(#j)" d="M1534.64 615.409c2.83-.165 5.65-.271 8.47-.319 13.49-.107 27.68 3.032 37.5 12.848 15.77 15.766 13.42 38.511 13.32 59.045-.06 11.438-.03 22.876.1 34.313-7.4-.665-19.11-.367-26.9-.367l-.19-9.565c-1.4-1.146-2.64.424-4.34 1.75-17.62 13.772-42.92 14.095-59.83-1.875-13.73-15.605-11.33-36.541 7.07-47.029 18.06-10.296 35.67-9.292 55.11-4.823-.55-1.839-2.03-7.071-2.91-8.413-11.85-18.061-35.83-9.151-50.06-1.068-4.25-5.015-9.53-13.035-13.35-18.594 12.22-9.858 20.85-13.317 36.01-15.903m13.42 83.508c7.15-2.314 17.65-7.598 16.98-16.461-3.79-8.472-17.51-6.817-25.29-6.064-26.39 7.445-16.48 25.546 8.31 22.525"/><path fill="#fefefe" d="M1155.63 616.954c9.73.104 19.45.379 29.15-.405.74 13.687-2.3 66.501 4.49 73.87 4.1 4.456 10.33 5.808 16.16 5.811 6 .003 12.07-1.567 16.3-6.102 3.16-3.39 4.76-7.635 5.57-12.122 2.41-13.364.25-45.401.24-60.777l30.99-.159.01 39.095c-.04 20.401-.62 43.721.16 63.888-9.4.317-17.64.302-27.04.098l.05-14.442c-21.72 27.866-68.18 21.403-74.7-13.836-3.63-19.648-1.41-53.75-1.38-74.919M1309.67 615.387c12.69-3.82 35.97 4.225 48 10.337l-9.49 22.28c-12.73-7.201-32.92-12.173-46.8-5.862-2.65 3.319-2.05 1.74-2.31 5.937 5.86 15.004 65.68 5.864 63.41 40.799-1.68 25.841-26.84 35.721-48.73 34.33-17.28 1.122-30.64-5.08-45.6-12.318a392 392 0 0 1 10.3-20.813c11.61 5.887 52.03 20.155 56.62-.011-5.7-13.046-64.62-7.584-65.2-37.866-.45-23.796 17.94-35.397 39.8-36.813M1085.37 589.932l29.79.04-.03 26.989 26.2.012.05 24.598c-9.05.426-17.12.138-26.17-.141.08 12.735-2.43 40.13 2.18 50.783 4.5 10.387 16.82.105 22.22 1.491 3.38 4.354 8.36 13.885 9.98 19.214-8.17 6.259-16.38 9.924-26.89 10.405-48.13 2.204-36.96-48.253-37.63-81.601-5.64.053-11.47-.128-17.13-.227l-.58-24.497 18.23.019c-.61-10.05-.57-16.999-.22-27.085M899.51 589.888l29.72.147c.068 9.297.022 17.717-.377 27l26.286-.027.103 24.774-26.322.022c.598 14.174-.952 29.851.233 43.766 1.151 13.51 13.541 11.587 23.485 8.947 2.283 6.766 4.766 13.175 9.256 18.786-7.77 5.398-16.766 10.414-26.693 10.26-45.486-.702-35.655-48.982-35.644-82.156-5.504.149-11.156.067-16.674.054l.066-24.484 16.679-.176z"/><path fill="#206737" d="M471.015 660.51c5.941-1.004 6.793-7.296 12.275-7.991l1.05 1.206c-1.828 2.869-3.403 4.716-5.538 7.319l.524 1.477c-10.02 13.025-54.371 55.758-68.166 63.37 7.316-9.87 23.132-26.048 31.753-35.563 6.949-7.67 21.283-23.932 28.102-29.818"/><path fill="#2a9747" d="M495.389 621.959c7.024-.431 5.998 9.76 11.098 13.128-4.459 5.379-21.603 22.98-27.161 27.434l-.524-1.477c2.135-2.603 3.71-4.45 5.538-7.319l-1.05-1.206c-5.482.695-6.334 6.987-12.275 7.991 7.525-8.967 23.88-22.496 27.345-32.101-.265-3.975-.169-2.722-2.971-6.45"/></svg>