<svg xmlns="http://www.w3.org/2000/svg" fill="none" viewBox="0 0 1328.48 339.52">
<path d="M207.994 1.8503C213.743 -0.613696 305.965 -0.477712 312.643 1.93429C314.829 2.72329 316.104 3.8913 317.015 6.0053C321.565 16.5643 320.381 104.055 318.739 119.614C308.617 131.24 299.812 117.85 291.058 110.46L287.68 111.27L286.626 113.664C284.148 127.27 274.633 136.157 265.233 145.786C247.936 163.502 231.211 182.235 213.63 199.621C204.012 210.627 177.249 232.327 177.294 245.451C177.315 251.782 187.805 258.317 190.208 261.805C190.727 262.199 191.249 262.588 191.774 262.973C208.598 275.288 230.334 274.956 243.045 257.12C237.026 255.498 225.883 254.561 219.341 253.816C221.598 250.756 223.964 248.095 226.445 245.227C232.436 237.532 237.631 228.949 244.345 221.978C249.213 216.922 250.658 217.295 257.454 217.379C265.803 217.376 307.883 216.72 312.18 218.173L312.642 218.415C315.205 219.686 317.59 220.631 318.249 224.011C320.741 236.789 319.562 267.563 316.924 279.324C315.199 286.946 312.31 294.256 308.357 300.997C302.542 310.996 296.616 317.602 287.033 323.899C275.227 334.901 250.38 339.564 234.79 339.51C187.089 339.345 139.414 339.258 91.7086 339.506C80.8496 339.562 72.5396 339.468 61.6146 337.249C31.3146 331.093 7.74962 306.296 4.80262 275.47C4.07562 266.285 35.6896 237.014 42.7206 229.905L93.0626 179.292L230.376 41.9273C224.217 31.4163 215.618 23.8373 209.452 13.3623C206.593 8.5043 206.487 7.2473 207.994 1.8503Z" fill="url(#paint0_linear_7_229)"/>
<path d="M287.033 323.899C284.098 324.882 278.575 327.859 275.174 329.29C261.188 335.402 249.493 338.26 234.011 338.057C176.604 337.3 117.985 340.974 60.8537 335.596C51.9187 334.755 32.5408 322.733 25.6098 315.649C19.1178 309.013 4.66275 291.557 11.0048 280.431C15.8798 274.157 25.9707 264.515 31.9217 258.464L80.8087 208.944C85.2337 212.891 117.295 242.157 117.044 248.452C116.601 259.529 73.7478 281.692 86.9248 295.055C94.8318 303.074 109.946 304.462 119.834 304.475C147.764 304.513 175.458 304.472 203.367 304.462C215.6 304.393 243.167 305.746 253.606 303.349C261.538 301.449 268.783 297.373 274.526 291.581C282.628 283.548 294.305 258.785 285.13 249.9C291.221 249.358 308.019 231.953 311.936 226.831C314.39 223.623 313.503 221.695 312.642 218.415C315.205 219.686 317.59 220.631 318.249 224.011C320.741 236.789 319.562 267.563 316.924 279.324C315.199 286.946 312.31 294.256 308.357 300.997C302.542 310.996 296.616 317.602 287.033 323.899Z" fill="url(#paint1_linear_7_229)"/>
<path d="M207.994 1.8503C213.743 -0.613696 305.965 -0.477712 312.643 1.93429C314.829 2.72329 316.104 3.8913 317.015 6.0053C321.565 16.5643 320.381 104.055 318.739 119.614C308.617 131.24 299.812 117.85 291.058 110.46C292.536 108.204 291.579 100.513 291.4 97.4443C288.386 94.2203 285.391 90.4593 281.246 89.1813L278.405 89.4203C256.647 108.819 227.903 139.621 207.97 159.322L168.449 119.427C180.647 106.055 237.835 52.8363 239.532 41.4933C240.548 34.6963 213.318 8.6553 207.994 1.8503Z" fill="url(#paint2_linear_7_229)"/>
<path d="M291.4 97.4443C296.177 102.587 310.255 119.152 315.562 120.863L318.739 119.614C308.617 131.24 299.812 117.85 291.058 110.46C292.536 108.204 291.579 100.513 291.4 97.4443Z" fill="#206737"/>
<path d="M257.454 217.379C265.803 217.376 307.883 216.72 312.18 218.173L312.642 218.415C313.503 221.695 314.39 223.623 311.936 226.831C308.019 231.953 291.221 249.358 285.13 249.9C279.894 249.78 274.658 249.687 269.422 249.621C258.915 251.046 238.825 250.627 228.241 249.225C229.185 248.062 229.923 247.248 231.203 246.458C231.652 244.597 232.133 243.595 231.406 241.849C230.427 243.13 229.425 244.391 228.399 245.633L226.445 245.227C232.436 237.532 237.631 228.949 244.345 221.978C249.213 216.922 250.658 217.295 257.454 217.379Z" fill="url(#paint3_linear_7_229)"/>
<path d="M226.445 245.227C232.436 237.532 237.631 228.949 244.345 221.978C249.213 216.922 250.658 217.295 257.454 217.379C257.374 218.817 251.892 233.404 251.152 234.959L251.835 234.242C247.96 240.513 246.4 242.446 241.375 247.866C243.092 249.627 243.004 249.069 246.142 249.473C253.204 249.248 262.524 248.805 269.422 249.621C258.915 251.046 238.825 250.627 228.241 249.225C229.185 248.062 229.923 247.248 231.203 246.458C231.652 244.597 232.133 243.595 231.406 241.849C230.427 243.13 229.425 244.391 228.399 245.633L226.445 245.227Z" fill="url(#paint4_linear_7_229)"/>
<path d="M257.454 217.379C265.803 217.376 307.883 216.72 312.18 218.173C300.27 219.117 274.317 217.337 265.261 220.813C262.123 224.532 259.77 230.034 256.941 234.082C253.318 239.266 249.647 244.183 246.142 249.473C243.004 249.069 243.092 249.627 241.375 247.866C246.4 242.446 247.96 240.513 251.835 234.242L251.152 234.959C251.892 233.404 257.374 218.817 257.454 217.379Z" fill="#2A9747"/>
<path d="M198.778 200.964C226.803 171.114 255.49 141.891 284.817 113.317L286.626 113.664C284.148 127.27 274.633 136.157 265.233 145.786C247.936 163.502 231.211 182.235 213.63 199.621C206.802 202.755 205.879 204.11 198.778 200.964Z" fill="#40DA63"/>
<path d="M198.778 200.964C205.879 204.11 206.802 202.755 213.63 199.621C204.012 210.627 177.249 232.327 177.294 245.451C177.315 251.782 187.805 258.317 190.208 261.805C190.126 262.401 189.819 262.859 189.535 263.447C187.631 261.6 186.663 260.727 184.551 259.129L182.869 259.987C180.856 266.414 184.37 266.9 186.83 271.317C184.71 271.155 174.681 261.657 172.588 259.867C150.45 240.938 184.395 215.336 198.778 200.964Z" fill="#2A9747"/>
<path d="M156.277 132.148C162.838 131.641 172.829 144.309 177.627 149.142C183.102 154.658 193.086 162.956 196.534 169.471C196.059 173.969 140.408 228.7 132.705 237.02C126.534 235.241 98.4287 204.662 90.6257 197.569C104.717 181.589 121.838 166.737 136.525 151.177C142.496 144.852 149.69 137.79 156.277 132.148Z" fill="url(#paint5_linear_7_229)"/>
<path d="M102.299 125.425C76.1048 126.44 48.7918 124.733 22.4848 125.678C9.7038 126.137 0.943792 125.507 0.586792 109.927C0.0857916 77.4743 -4.32221 44.0833 21.6638 19.3163C46.1358 -4.00671 76.4218 -0.0846992 107.664 0.796301C126.275 0.538301 153.014 -0.258692 171.003 0.728308C179.137 7.15431 193.685 23.0883 201.319 31.2453C205.063 35.3633 208.529 39.1873 203.844 43.8273C194.614 47.0043 185.213 45.3563 175.907 45.6763C149.476 46.5843 95.4208 41.6383 72.9058 51.4243C64.9628 54.8827 58.5017 61.0431 54.6688 68.8123C50.4498 77.3443 49.9048 85.3953 49.8118 94.6993L104.157 94.5723C110.119 94.5643 128.101 94.2323 133.106 95.3083C157.084 100.9 119.669 131.891 113.397 138.553C108.297 135.185 109.323 124.994 102.299 125.425Z" fill="url(#paint6_linear_7_229)"/>
<path d="M201.319 31.2454C205.063 35.3634 208.529 39.1874 203.844 43.8274C194.614 47.0044 185.213 45.3564 175.907 45.6764C149.476 46.5844 95.4208 41.6384 72.9058 51.4244C64.9628 54.8828 58.5017 61.0431 54.6688 68.8124C50.4498 77.3444 49.9048 85.3953 49.8118 94.6993L104.157 94.5724C110.119 94.5644 128.101 94.2323 133.106 95.3083C121.804 95.8363 46.2448 97.0984 41.3518 93.5334C38.1508 88.3994 39.1418 85.2343 38.7638 79.9543C36.5288 48.7393 52.9518 34.8134 83.5018 35.3974C96.5948 35.6484 114.599 35.8923 128.481 35.3553C141.382 36.1243 190.156 34.5624 198.873 36.5734C201.012 38.4304 201.687 39.3254 204.322 40.1174C204.8 38.0064 202.336 33.5264 201.319 31.2454Z" fill="#123D28"/>
<path d="M107.664 0.796287C126.275 0.538287 153.014 -0.258707 171.003 0.728293C179.137 7.15429 193.685 23.0883 201.319 31.2453C202.336 33.5263 204.8 38.0063 204.322 40.1173C201.687 39.3253 201.012 38.4303 198.873 36.5733C190.156 34.5623 141.382 36.1243 128.481 35.3553C135.336 32.3073 146.82 35.2513 152.998 33.5213C141.127 28.7583 131.344 16.1113 125.709 4.93029L125.141 3.78731C129.493 3.66731 136.61 3.67731 140.642 2.96831C134.027 3.06231 112.154 4.47529 107.664 0.796287Z" fill="#40DA63"/>
<path d="M1271.49 118.888C1341.82 115.179 1347.86 215.396 1285.11 225.498C1270.73 227.812 1257.52 224.333 1245.84 215.479L1245.37 234.178L1245.44 259.804C1235.88 259.621 1225.62 259.869 1216.01 259.925L1216.21 119.988L1244.07 119.769C1245.27 121.514 1244.71 125.393 1244.6 127.749L1245.45 128.62C1256.41 123.163 1259.25 120.947 1271.49 118.888ZM1280.59 200.098C1296.48 192.394 1303 175.594 1294.71 159.666C1292.99 156.333 1290.6 153.388 1287.7 151.016C1284.79 148.644 1281.43 146.894 1277.82 145.876C1273.63 144.671 1267.24 145.159 1262.88 145.559C1258.9 147.158 1253.97 148.991 1251.74 152.618C1235.57 178.964 1248.42 205.573 1280.59 200.098Z" fill="url(#paint7_linear_7_229)"/>
<path d="M433.079 82.0083C452.554 80.4003 470.964 84.5743 487.295 95.4203C484.882 101.727 479.218 112.822 476.16 119.294C463.866 111.723 417.735 96.5344 414.845 123.71C413.848 133.085 432.284 138.321 440.03 139.368C480.089 144.787 515.502 169.821 484.742 210.959C474.458 224.455 447.725 226.801 429.921 226.801C409.445 223.83 395.27 219.904 378.882 206.988C383.021 200.409 387.725 191.502 391.562 184.615C412.246 199.017 432.934 203.26 457.288 197.201C479.077 179.247 452.143 170.021 437.269 167.055C415.502 162.715 384.37 154.716 382.998 127.76C382.728 122.421 383.521 117.082 385.331 112.052C387.141 107.022 389.932 102.401 393.542 98.4583C403.744 87.1973 418.251 82.7823 433.079 82.0083Z" fill="#FEFEFE"/>
<path d="M1002.47 83.9683L1098.69 84.5303L1098.73 107.398C1087.79 119.752 1075.43 136.286 1064.77 149.345C1051.7 165.357 1037.31 182.075 1024.7 198.254C1049.09 197.94 1074.17 198.297 1098.61 198.356C1099.05 206.184 1098.8 216.143 1098.81 224.153L1090.16 224.201L987.1 224.346L987.33 200.109C1007.44 176.299 1026.42 151.241 1046.5 127.365C1050.76 122.307 1054.83 117.006 1058.76 111.685C1038.6 110.238 1008.38 111.196 987.49 111.239C987.83 102.714 987.62 92.8712 987.63 84.2432L1002.47 83.9683Z" fill="url(#paint8_linear_7_229)"/>
<path d="M615.43 118.89C628 115.72 649.56 122.776 658.83 132.114C673.81 147.201 671.29 168.885 671.13 188.255C670.96 200.037 670.96 211.818 671.13 223.6C661.51 223.874 653.12 223.785 643.5 223.509V211.77C625.33 230.454 599.179 232.76 579.401 215.008C567.493 201.791 568.536 178.955 584.358 169.135C601.349 158.59 621.73 159.504 640.69 163.159C633.01 133.4 608.53 143.433 588.318 152.702C584.446 146.201 580.641 139.661 576.905 133.081C589.939 122.059 598.726 119.827 615.43 118.89ZM622.03 203.061C642.36 197.175 649.88 176.211 620.63 179.844C592.035 185.554 601.181 205.221 622.03 203.061Z" fill="#FEFEFE"/>
<path d="M1141.55 118.875C1144.38 118.71 1147.2 118.604 1150.02 118.556C1163.51 118.449 1177.7 121.588 1187.52 131.404C1203.29 147.17 1200.94 169.915 1200.84 190.449C1200.78 201.887 1200.81 213.325 1200.94 224.762C1193.54 224.097 1181.83 224.395 1174.04 224.395L1173.85 214.83C1172.45 213.684 1171.21 215.254 1169.51 216.58C1151.89 230.352 1126.59 230.675 1109.68 214.705C1095.95 199.1 1098.35 178.164 1116.75 167.676C1134.81 157.38 1152.42 158.384 1171.86 162.853C1171.31 161.014 1169.83 155.782 1168.95 154.44C1157.1 136.379 1133.12 145.289 1118.89 153.372C1114.64 148.357 1109.36 140.337 1105.54 134.778C1117.76 124.92 1126.39 121.461 1141.55 118.875ZM1154.97 202.383C1162.12 200.069 1172.62 194.785 1171.95 185.922C1168.16 177.45 1154.44 179.105 1146.66 179.858C1120.27 187.303 1130.18 205.404 1154.97 202.383Z" fill="url(#paint9_linear_7_229)"/>
<path d="M762.54 120.42C772.27 120.524 781.99 120.799 791.69 120.015C792.43 133.702 789.39 186.516 796.18 193.885C800.28 198.341 806.51 199.693 812.34 199.696C818.34 199.699 824.41 198.129 828.64 193.594C831.8 190.204 833.4 185.959 834.21 181.472C836.62 168.108 834.46 136.071 834.45 120.695L865.44 120.536L865.45 159.631C865.41 180.032 864.83 203.352 865.61 223.519C856.21 223.836 847.97 223.821 838.57 223.617L838.62 209.175C816.9 237.041 770.44 230.578 763.92 195.339C760.29 175.691 762.51 141.589 762.54 120.42ZM916.58 118.853C929.27 115.033 952.55 123.078 964.58 129.19L955.09 151.47C942.36 144.269 922.17 139.297 908.29 145.608C905.64 148.927 906.24 147.348 905.98 151.545C911.84 166.549 971.66 157.409 969.39 192.344C967.71 218.185 942.55 228.065 920.66 226.674C903.38 227.796 890.02 221.594 875.06 214.356C878.287 207.318 881.722 200.378 885.36 193.543C896.97 199.43 937.39 213.698 941.98 193.532C936.28 180.486 877.36 185.948 876.78 155.666C876.33 131.87 894.72 120.269 916.58 118.853ZM692.28 93.3983L722.07 93.4382L722.04 120.427L748.24 120.439L748.29 145.037C739.24 145.463 731.17 145.175 722.12 144.896C722.2 157.631 719.69 185.026 724.3 195.679C728.8 206.066 741.12 195.784 746.52 197.17C749.9 201.524 754.88 211.055 756.5 216.384C748.33 222.643 740.12 226.308 729.61 226.789C681.48 228.993 692.65 178.536 691.98 145.188C686.34 145.241 680.51 145.06 674.85 144.961L674.27 120.464L692.5 120.483C691.89 110.433 691.93 103.484 692.28 93.3983ZM506.42 93.3542L536.14 93.5012C536.208 102.798 536.162 111.218 535.763 120.501L562.049 120.474L562.152 145.248L535.83 145.27C536.428 159.444 534.878 175.121 536.063 189.036C537.214 202.546 549.604 200.623 559.548 197.983C561.831 204.749 564.314 211.158 568.804 216.769C561.034 222.167 552.038 227.183 542.111 227.029C496.625 226.327 506.456 178.047 506.467 144.873C500.963 145.022 495.311 144.94 489.793 144.927L489.859 120.443L506.538 120.267L506.42 93.3542Z" fill="#FEFEFE"/>
<path d="M77.9246 163.976C83.8656 162.972 84.7176 156.68 90.1996 155.985L91.2496 157.191C89.4216 160.06 87.8466 161.907 85.7116 164.51L86.2356 165.987C76.2156 179.012 31.8646 221.745 18.0696 229.357C25.3856 219.487 41.2016 203.309 49.8226 193.794C56.7716 186.124 71.1056 169.862 77.9246 163.976Z" fill="#206737"/>
<path d="M102.299 125.425C109.323 124.994 108.297 135.185 113.397 138.553C108.938 143.932 91.7938 161.533 86.2358 165.987L85.7118 164.51C87.8468 161.907 89.4218 160.06 91.2498 157.191L90.1998 155.985C84.7178 156.68 83.8658 162.972 77.9248 163.976C85.4498 155.009 101.805 141.48 105.27 131.875C105.005 127.9 105.101 129.153 102.299 125.425Z" fill="#2A9747"/>
<defs>
<linearGradient id="paint0_linear_7_229" x1="134.172" y1="313.657" x2="216.178" y2="8.4193" gradientUnits="userSpaceOnUse">
<stop stop-color="#112721"/>
<stop offset="1" stop-color="#163F2B"/>
</linearGradient>
<linearGradient id="paint1_linear_7_229" x1="155.381" y1="344.054" x2="169.863" y2="208.922" gradientUnits="userSpaceOnUse">
<stop stop-color="#21873C"/>
<stop offset="1" stop-color="#35C558"/>
</linearGradient>
<linearGradient id="paint2_linear_7_229" x1="200.844" y1="151.311" x2="305.239" y2="-1.10267" gradientUnits="userSpaceOnUse">
<stop stop-color="#37CB59"/>
<stop offset="1" stop-color="#47EE6D"/>
</linearGradient>
<linearGradient id="paint3_linear_7_229" x1="266.24" y1="223.899" x2="298.676" y2="245.423" gradientUnits="userSpaceOnUse">
<stop stop-color="#2EAE4F"/>
<stop offset="1" stop-color="#42DD64"/>
</linearGradient>
<linearGradient id="paint4_linear_7_229" x1="242.109" y1="226.208" x2="252.019" y2="227.772" gradientUnits="userSpaceOnUse">
<stop stop-color="#176731"/>
<stop offset="1" stop-color="#217F3E"/>
</linearGradient>
<linearGradient id="paint5_linear_7_229" x1="120.032" y1="228.2" x2="167.764" y2="138.653" gradientUnits="userSpaceOnUse">
<stop stop-color="#22903E"/>
<stop offset="1" stop-color="#36CA59"/>
</linearGradient>
<linearGradient id="paint6_linear_7_229" x1="6.30679" y1="119.129" x2="152.935" y2="18.5373" gradientUnits="userSpaceOnUse">
<stop stop-color="#1F7837"/>
<stop offset="1" stop-color="#45F56D"/>
</linearGradient>
<linearGradient id="paint7_linear_7_229" x1="1245.5" y1="262.518" x2="1279.22" y2="119.938" gradientUnits="userSpaceOnUse">
<stop stop-color="#299B44"/>
<stop offset="1" stop-color="#3DE364"/>
</linearGradient>
<linearGradient id="paint8_linear_7_229" x1="1018.64" y1="229.615" x2="1066.96" y2="77.8832" gradientUnits="userSpaceOnUse">
<stop stop-color="#299A45"/>
<stop offset="1" stop-color="#40EA68"/>
</linearGradient>
<linearGradient id="paint9_linear_7_229" x1="1147.65" y1="224.399" x2="1160.31" y2="121.27" gradientUnits="userSpaceOnUse">
<stop stop-color="#289242"/>
<stop offset="1" stop-color="#34C456"/>
</linearGradient>
</defs>
</svg>