<svg xmlns="http://www.w3.org/2000/svg" version="1.1" style="display: block;" preserveAspectRatio="none" viewBox="775.52 420.3 452.09 487.21">
<defs>
	<linearGradient id="Gradient1" gradientUnits="userSpaceOnUse" x1="773.154" y1="562.764" x2="805.033" y2="544.554">
		<stop class="stop0" offset="0" stop-opacity="1" stop-color="rgb(37,115,59)"/>
		<stop class="stop1" offset="1" stop-opacity="1" stop-color="rgb(51,149,74)"/>
	</linearGradient>
	<linearGradient id="Gradient2" gradientUnits="userSpaceOnUse" x1="934.07" y1="467.149" x2="938.604" y2="534.046">
		<stop class="stop0" offset="0" stop-opacity="1" stop-color="rgb(13,57,28)"/>
		<stop class="stop1" offset="1" stop-opacity="1" stop-color="rgb(50,121,71)"/>
	</linearGradient>
	<linearGradient id="Gradient3" gradientUnits="userSpaceOnUse" x1="798.011" y1="580.842" x2="1015.76" y2="423.037">
		<stop class="stop0" offset="0" stop-opacity="1" stop-color="rgb(49,158,77)"/>
		<stop class="stop1" offset="1" stop-opacity="1" stop-color="rgb(131,255,135)"/>
	</linearGradient>
	<linearGradient id="Gradient4" gradientUnits="userSpaceOnUse" x1="907.489" y1="727.11" x2="1018.46" y2="638.329">
		<stop class="stop0" offset="0" stop-opacity="1" stop-color="rgb(31,119,56)"/>
		<stop class="stop1" offset="1" stop-opacity="1" stop-color="rgb(77,203,97)"/>
	</linearGradient>
	<linearGradient id="Gradient5" gradientUnits="userSpaceOnUse" x1="852.46" y1="777.258" x2="920.157" y2="754.044">
		<stop class="stop0" offset="0" stop-opacity="1" stop-color="rgb(62,174,84)"/>
		<stop class="stop1" offset="1" stop-opacity="1" stop-color="rgb(89,220,104)"/>
	</linearGradient>
	<linearGradient id="Gradient6" gradientUnits="userSpaceOnUse" x1="1130.66" y1="813.51" x2="1191.03" y2="741.282">
		<stop class="stop0" offset="0" stop-opacity="1" stop-color="rgb(31,119,56)"/>
		<stop class="stop1" offset="1" stop-opacity="1" stop-color="rgb(109,234,109)"/>
	</linearGradient>
	<linearGradient id="Gradient7" gradientUnits="userSpaceOnUse" x1="996.014" y1="555.219" x2="1237.14" y2="468.545">
		<stop class="stop0" offset="0" stop-opacity="1" stop-color="rgb(70,197,90)"/>
		<stop class="stop1" offset="1" stop-opacity="1" stop-color="rgb(129,255,140)"/>
	</linearGradient>
	<linearGradient id="Gradient8" gradientUnits="userSpaceOnUse" x1="1009.52" y1="855.465" x2="1009.4" y2="865.202">
		<stop class="stop0" offset="0" stop-opacity="1" stop-color="rgb(74,190,93)"/>
		<stop class="stop1" offset="1" stop-opacity="1" stop-color="rgb(105,239,122)"/>
	</linearGradient>
	<linearGradient id="Gradient9" gradientUnits="userSpaceOnUse" x1="990.85" y1="915.866" x2="1005.91" y2="753.563">
		<stop class="stop0" offset="0" stop-opacity="1" stop-color="rgb(41,133,63)"/>
		<stop class="stop1" offset="1" stop-opacity="1" stop-color="rgb(62,170,82)"/>
	</linearGradient>
</defs>
<path transform="translate(0,0)" fill="rgb(16,58,31)" d="M 1055.91 422.55 C 1064.08 419.669 1100.85 421.045 1112.11 420.99 C 1142.96 421.191 1174.28 420.72 1205.08 421.236 C 1213.94 421.385 1224.42 422.43 1225.4 432.421 C 1229.73 477.088 1226.17 523.671 1227.23 568.696 C 1227.37 574.878 1227.31 580.851 1223.35 585.683 C 1200.25 596.591 1190.87 562.405 1180.72 568.103 C 1172.37 572.787 1153.59 594.606 1145.29 602.523 C 1145.83 607.817 1145.99 610.674 1145.89 615.985 C 1140.85 623.747 1097.3 666.615 1088.35 674.564 C 1084.61 679.535 1074.14 689.492 1069.26 694.31 L 1035.54 727.482 C 1025.33 737.548 1009.57 748.491 1016.79 763.827 C 1034.39 783.219 1063.35 820.013 1092.03 794.412 C 1095.53 791.287 1097.87 787.235 1099.99 783.085 C 1093.34 782.76 1083.31 783.419 1078.78 779.034 C 1077.96 776.919 1077.47 776.26 1078.06 774.078 C 1081.02 768.003 1112.37 729.931 1118.27 728.939 C 1132.71 726.512 1156.25 727.774 1171.67 728.011 C 1222 726.925 1226 716.616 1225.96 769.753 L 1225.7 792.392 C 1225.11 824.683 1217.14 854.279 1192.88 877.569 C 1178.44 891.261 1160.46 900.646 1140.98 904.664 C 1120.63 908.956 1055.36 907.103 1031.48 907.172 C 979.576 907.322 926.047 906.862 873.965 906.891 C 856.583 906.901 833.508 902.148 819.135 892.306 C 795.467 879.624 779.15 850.535 776.728 824.961 C 775.838 814.421 773.158 789.544 780.61 780.988 C 799.149 759.702 825.557 734.943 845.306 715.105 L 1001.59 558.783 L 1050.63 509.81 C 1055.19 505.258 1081.26 480.348 1082.29 475.879 C 1085.52 461.753 1051.44 444.802 1050.63 430.909 C 1051.39 427.015 1053.28 425.451 1055.91 422.55 z"/>
<path transform="translate(0,0)" fill="url(#Gradient9)" d="M 777.444 806.57 C 791.216 798.366 833.854 751.74 849.623 736.96 C 840.615 789.228 884.172 807.93 884.603 821.905 C 883.089 823.68 881.221 825.161 881.165 827.066 L 882.189 827.129 C 878.983 835.92 878.92 837.026 880.913 846.14 C 890.899 856.711 896.521 858.937 911.241 859.019 C 969.163 859.339 1027.1 858.934 1085.02 859.15 C 1102.59 859.216 1118.27 859.762 1135.65 856.696 C 1160.56 845.539 1169.91 838.663 1179.32 812.124 C 1186.42 800.245 1210.93 802.968 1222.53 805.337 L 1223.92 803.432 C 1223.96 798.833 1224.07 797.846 1225.38 793.446 L 1225.7 792.392 C 1225.11 824.683 1217.14 854.279 1192.88 877.569 C 1178.44 891.261 1160.46 900.646 1140.98 904.664 C 1120.63 908.956 1055.36 907.103 1031.48 907.172 C 979.576 907.322 926.047 906.862 873.965 906.891 C 856.583 906.901 833.508 902.148 819.135 892.306 C 816.857 887.871 803.042 878.333 798.562 872.871 C 790.942 863.58 786.601 852.036 782.019 841.073 C 778.687 833.102 778.085 815.501 777.444 806.57 z"/>
<path transform="translate(0,0)" fill="url(#Gradient8)" d="M 1135.65 856.696 L 1135.98 857.365 C 1132.61 861.177 1130.24 862.626 1125.07 863.377 C 1088.58 868.678 1050.56 866.71 1013.66 867.045 C 978.558 867.363 942.689 867.482 907.646 865.609 C 901.818 865.293 893.719 863.984 889.011 860.674 C 880.782 854.888 882.491 853.735 880.913 846.14 C 890.899 856.711 896.521 858.937 911.241 859.019 C 969.163 859.339 1027.1 858.934 1085.02 859.15 C 1102.59 859.216 1118.27 859.762 1135.65 856.696 z"/>
<path transform="translate(0,0)" fill="url(#Gradient7)" d="M 1055.91 422.55 C 1064.08 419.669 1100.85 421.045 1112.11 420.99 C 1142.96 421.191 1174.28 420.72 1205.08 421.236 C 1213.94 421.385 1224.42 422.43 1225.4 432.421 C 1229.73 477.088 1226.17 523.671 1227.23 568.696 C 1227.37 574.878 1227.31 580.851 1223.35 585.683 C 1208.6 576.599 1196.46 556.194 1182.12 545.946 C 1166.67 534.898 1147.98 563.454 1137.91 571.624 C 1125.84 581.415 1073.54 640.099 1062.89 642.235 C 1056.53 639.857 1008.78 590.973 1003.39 582.796 C 1011.8 572.063 1022.19 562.335 1031.87 552.686 L 1075.24 509.475 C 1082.01 502.718 1102.04 485.064 1100.58 476.502 C 1098 461.274 1066.95 433.661 1055.91 422.55 z"/>
<path transform="translate(0,0)" fill="url(#Gradient6)" d="M 1171.67 728.011 C 1222 726.925 1226 716.616 1225.96 769.753 L 1225.7 792.392 L 1225.38 793.446 C 1224.07 797.846 1223.96 798.833 1223.92 803.432 L 1222.53 805.337 C 1210.93 802.968 1186.42 800.245 1179.32 812.124 C 1180.63 804.346 1182.65 787.155 1180.14 780.068 C 1174.38 772.623 1154.33 774.844 1145.28 774.886 L 1095.07 775.051 C 1090.37 775.047 1082.26 775.516 1078.06 774.078 C 1081.02 768.003 1112.37 729.931 1118.27 728.939 C 1132.71 726.512 1156.25 727.774 1171.67 728.011 z"/>
<path transform="translate(0,0)" fill="rgb(112,232,114)" d="M 1171.67 728.011 C 1222 726.925 1226 716.616 1225.96 769.753 C 1213.97 760.705 1179.35 768.04 1173.53 763.561 C 1171.91 760.332 1163.38 731.498 1163.97 729.385 C 1167.21 729.456 1167.76 729.289 1170.88 728.277 L 1171.67 728.011 z"/>
<path transform="translate(0,0)" fill="url(#Gradient5)" d="M 849.623 736.96 C 855.08 731.285 864.746 720.06 871.819 717.446 C 877.584 718.133 925.402 768.09 929.283 775.741 C 927.043 785.373 891.504 815.355 882.189 827.129 L 881.165 827.066 C 881.221 825.161 883.089 823.68 884.603 821.905 C 884.172 807.93 840.615 789.228 849.623 736.96 z"/>
<path transform="translate(0,0)" fill="rgb(76,193,95)" d="M 1096.57 653.929 C 1098.5 655.13 1101.03 656.347 1103.09 657.412 C 1097.72 662.621 1092.94 667.251 1087.93 672.844 L 1088.35 674.564 C 1084.61 679.535 1074.14 689.492 1069.26 694.31 L 1035.54 727.482 C 1025.33 737.548 1009.57 748.491 1016.79 763.827 C 1015.38 765.797 1009.03 771.987 1006.99 774.063 C 1006.81 773.838 1006.63 773.614 1006.45 773.387 C 1001.76 767.351 997.793 759.995 999.109 752.095 C 1000.46 744.001 1061.03 684.801 1071.43 676.652 C 1077.12 675.378 1091.44 659.195 1096.57 653.929 z"/>
<path transform="translate(0,0)" fill="rgb(112,232,114)" d="M 1071.43 676.652 C 1077.92 669.346 1089.85 658.27 1097.28 650.895 C 1113.4 634.891 1129.41 618.767 1145.29 602.523 C 1145.83 607.817 1145.99 610.674 1145.89 615.985 C 1140.85 623.747 1097.3 666.615 1088.35 674.564 L 1087.93 672.844 C 1092.94 667.251 1097.72 662.621 1103.09 657.412 C 1101.03 656.347 1098.5 655.13 1096.57 653.929 C 1091.44 659.195 1077.12 675.378 1071.43 676.652 z"/>
<path transform="translate(0,0)" fill="url(#Gradient4)" d="M 885.961 702.643 C 886.034 702.518 886.111 702.394 886.181 702.266 C 892.651 690.508 978.162 604.5 989.095 598.615 C 995.249 602.41 1042.97 649.153 1048.45 656.188 C 1048.52 659.608 1047.83 661.916 1044.86 664.214 C 1036.71 675.159 955.06 755.583 945.011 760.803 C 939.345 759.9 890.94 709.394 885.961 702.643 z"/>
<path transform="translate(0,0)" fill="rgb(76,193,95)" d="M 989.095 598.615 C 995.249 602.41 1042.97 649.153 1048.45 656.188 C 1048.52 659.608 1047.83 661.916 1044.86 664.214 L 1039.52 667.491 C 1033.6 657.861 1026.33 646.428 1018.61 638.211 C 1009.08 628.069 992.812 620.63 987.326 607.223 C 986.076 604.167 987.709 601.479 989.095 598.615 z"/>
<path transform="translate(0,0)" fill="url(#Gradient3)" d="M 780.188 489.633 C 782.075 474.44 797.508 453.572 808.892 443.613 C 820.045 433.812 833.503 427.003 848.006 423.823 C 867.873 419.262 906.195 420.655 928.141 420.624 C 952.359 420.589 986.237 419.595 1009.69 421.289 C 1018.32 426.733 1045.07 458.305 1049.73 467.205 C 1049.83 483.8 1033.25 480.006 1020.97 480.008 L 951.373 479.977 C 932.973 479.962 904.792 478.413 887.882 483.026 C 863.096 489.788 841.428 511.19 838.937 537.745 C 838.765 539.635 838.63 541.527 838.532 543.422 C 850.17 543.374 861.921 543.239 873.548 543.342 L 926.738 543.416 C 935.176 543.436 960.648 542.028 966.034 547.713 C 968.972 550.809 970.421 555.029 970.003 559.277 C 969.699 562.273 968.65 564.819 966.659 567.205 C 962.016 572.769 957.453 577.108 952.202 582.267 C 930.431 603.658 908.638 625.109 886.807 646.444 C 886.47 646.669 886.133 646.894 885.795 647.118 C 873.826 650.505 866.834 665.577 859.544 667.69 L 858.815 665.966 C 860.034 663.626 860.575 662.871 862.158 660.745 L 861.615 659.122 C 870.425 647.01 916.102 608.871 918.538 598.143 C 918.234 596.55 918.353 595.727 917.203 594.496 C 912.077 589.011 853.322 591.96 842.609 591.615 C 796.407 592.482 771.624 601.581 776.206 542.66 C 777.675 523.762 773.5 510.08 780.188 489.633 z"/>
<path transform="translate(0,0)" fill="url(#Gradient2)" d="M 1049.73 467.205 C 1049.83 483.8 1033.25 480.006 1020.97 480.008 L 951.373 479.977 C 932.973 479.962 904.792 478.413 887.882 483.026 C 863.096 489.788 841.428 511.19 838.937 537.745 C 838.765 539.635 838.63 541.527 838.532 543.422 C 850.17 543.374 861.921 543.239 873.548 543.342 C 867.474 544.768 831.93 545.429 828.775 542.015 C 816.437 528.668 829.21 497.558 838.786 486.531 C 844.442 484.084 850.744 485.213 856.527 483.145 C 867.782 479.118 875.874 472.268 888.276 470.6 C 909.357 467.764 1010.96 471.405 1018.03 468.01 C 1024.53 467.828 1045.93 468.429 1049.73 467.205 z"/>
<path transform="translate(0,0)" fill="url(#Gradient1)" d="M 842.609 591.615 C 796.407 592.482 771.624 601.581 776.206 542.66 C 777.675 523.762 773.5 510.08 780.188 489.633 C 780.218 489.918 780.254 490.203 780.278 490.49 C 780.888 497.728 775.836 504.172 781.935 509.56 C 782.699 510.235 782.416 509.961 783.487 510.735 C 791.75 516.705 814.513 558.786 818.836 569.71 C 821.372 576.118 822.489 582.908 823.935 589.619 L 823.368 589.625 C 827.238 589.99 839.641 590.62 842.609 591.615 z"/>
<path transform="translate(0,0)" fill="rgb(16,58,31)" d="M 838.786 486.531 C 839.925 485.213 841.109 483.934 842.335 482.697 C 848.917 476.181 857.168 471.606 866.182 469.477 C 876.712 467.096 908.8 467.864 921.496 467.864 L 1018.03 468.01 C 1010.96 471.405 909.357 467.764 888.276 470.6 C 875.874 472.268 867.782 479.118 856.527 483.145 C 850.744 485.213 844.442 484.084 838.786 486.531 z"/>
<path transform="translate(0,0)" fill="rgb(48,127,68)" d="M 861.615 659.122 L 862.158 660.745 C 860.575 662.871 860.034 663.626 858.815 665.966 L 859.544 667.69 C 866.834 665.577 873.826 650.505 885.795 647.118 C 876.925 657.083 856.352 676.27 845.984 685.929 C 833.514 697.548 803.595 726.869 790.592 735.307 C 803.998 717.316 820.259 700.817 835.945 684.746 C 842.188 678.349 855.035 664.672 861.615 659.122 z"/>
</svg>